<?xml version="1.0" encoding="utf-8"?>
<!DOCTYPE svg PUBLIC "-//W3C//DTD SVG 1.1//EN" "http://www.w3.org/Graphics/SVG/1.1/DTD/svg11.dtd">
<svg version="1.1" id="Layer_1" xmlns="http://www.w3.org/2000/svg" xmlns:xlink="http://www.w3.org/1999/xlink" x="0px" y="0px"
	 width="100.186px" height="34.986px" viewBox="0 0 100.186 34.986" enable-background="new 0 0 100.186 34.986"
	 xml:space="preserve">
<g opacity="0.05">
	<g>
		<path fill-rule="evenodd" clip-rule="evenodd" d="M14.721,15.938C17.56,21.951-1.41,29.193,0.084,34.95
			c0.088,0,0.174,0.001,0.263,0.002c0-2.603,0-5.205,0-7.823c0.979,0,1.808,0,2.749,0c0,0.509,0,0.962,0,1.45
			c0.619,0.023,1.129,0.043,1.79,0.069c0,1.395,0,2.769,0,4.143c0.092,0,0.185,0,0.277,0c0-1.697,0-3.395,0-5.138
			c0.793,0,1.467,0,2.225,0c0.042,0.649,0.083,1.275,0.124,1.903c0.095,0,0.193,0,0.29,0.001c0-1.136,0-12.93,0-14.158
			c0.11,0.02,1.131-0.178,1.131-0.178s-0.091-3.684,0.151-3.325c0.047,0.071,3.969-0.002,4.194,0
			C14.359,11.901,13.64,15.964,14.721,15.938c0.864-0.02,0.729,10.884,0.718,11.475c-0.029,1.44-0.009,2.881-0.009,4.372
			c0.523,0,0.986,0,1.565,0c0-0.265,0-0.502,0-0.739c-0.006-2.73-0.02-5.461-0.006-8.191c0.001-0.329-0.292-0.771,0.57-0.902
			c0.131-0.02,0.146-0.391,0.247-0.698c1.601,0,3.221,0,4.975,0c0,0.188,0.002,0.421,0,0.653c-0.009,2.997-0.015,5.994-0.03,8.99
			c-0.003,0.424,0.043,0.776,1.044,0.555c0-3.168,0-6.354,0-9.615c2.193,0,4.235,0,6.373,0c0-3.06,0-6.045,0-9.029
			c0.07-0.002,0.142-0.003,0.21-0.004c0,0.415,0,0.83,0,1.339c0.854,0,1.597-0.019,2.336,0.011c0.241,0.01,0.613,0.105,0.679,0.225
			c0.234,0.422,0.358,0.87,0.727,1.304c0-0.222,0.002-0.442,0-0.664c-0.012-2.908-0.026-5.816-0.037-8.724
			c-0.004-1.007,1.102-1.75,2.584-1.744c0.425,0.001,0.853,0.018,1.277,0.003c0.763-0.027,1.106,0.182,1.642,0.623
			c0.901,0.741,0.657,1.475,0.666,2.224c0.035,2.664-0.011,5.328,0.012,7.992c0.001,0.234,0.304,0.461,0.417,0.702
			c0.103,0.222,0.186,0.457,0.188,0.688c0.017,1.818,0.009,3.637,0.009,5.511c1,0,2.061,0,3.27,0c0-4.368,0-8.764,0-13.221
			c1.019,0,1.983,0,3.006,0c0.093-0.211,0.163-0.376,0.306-0.704c0.14,0.315,0.205,0.469,0.28,0.64c0.665,0,1.315,0,2.015,0
			c0.076-0.197,0.151-0.392,0.227-0.587c0.055-0.002,0.108-0.004,0.165-0.006c0.049,0.19,0.096,0.381,0.159,0.625
			c0.99,0,1.962,0,2.987,0c0.021,0.227,0.051,0.398,0.05,0.57c-0.014,4.439-0.018,8.88-0.047,13.319
			c-0.026,3.794-0.082,7.586-0.118,11.379c-0.005,0.729,0.012,0.733,1.072,0.635c0-0.621,0-1.237,0-1.935
			c0.128-0.04,0.406-0.128,0.575-0.182c0.559-0.465-0.606-1.38,1.036-1.458c0.087-0.811,0.19-1.62,0.252-2.432
			c0.09-1.187,0.224-2.376,0.213-3.564c-0.048-5.364-0.142-10.729-0.217-16.094c-0.003-0.239-0.001-0.479-0.001-0.893
			c1.187,0.182,2.233,0.343,3.374,0.518c0-0.275,0-0.516,0-0.755c0-1.909,0.048-3.818-0.022-5.727
			c-0.028-0.712,0.187-1.278,0.94-1.784c0.64-0.43,1.03-0.737,2.246-0.605c1.289,0.14,2.338,0.535,3.512,0.77
			c0.749,0.148,1.002,0.442,1,1.003c-0.037,7.103-0.041,14.206-0.017,21.309c0.011,3.11,0.103,6.222,0.159,9.332
			c0.004,0.129,0.034,0.26,0.057,0.437c0.298,0.02,0.573,0.039,0.916,0.062c0.025-0.174,0.06-0.301,0.062-0.427
			c0.066-2.314,0.17-4.627,0.182-6.941c0.021-3.831-0.004-7.662-0.05-11.492c-0.005-0.585,0.156-1.049,0.814-1.463
			c1.198-0.753,2.36-1.534,3.476-2.343c0.615-0.445,1.272-0.553,2.179-0.377c0,0.213,0,0.43,0,0.646
			c-0.007,4.13-0.01,8.259-0.031,12.389c-0.002,0.425-0.045,0.817,0.807,0.753c1.391,3.182,0.493,6.391,0.765,9.559
			c0.044,0.524,0.12,1.047,0.357,1.571c0-0.73,0-1.462,0-2.194c0-0.709,0.075-1.425-0.021-2.129
			c-0.092-0.684,0.258-0.996,1.437-0.945c0-5.679,0-11.325,0-16.998c0.439-0.044,0.716-0.071,1.118-0.111
			c0-0.961-0.03-1.932,0.022-2.899c0.014-0.223,0.343-0.431,0.483-0.658c0.104-0.17,0.197-0.358,0.199-0.54
			c0.021-0.991,0.012-1.984,0.012-3.01c1.564,0,2.991,0,4.548,0c0,0.95-0.017,1.896,0.011,2.842
			c0.006,0.292-0.245,0.669,0.466,0.813c0.108,0.021,0.126,0.319,0.128,0.489c0.013,0.973,0.006,1.945,0.006,2.95
			c0.395,0.038,0.707,0.069,1.12,0.11c0,2.582,0,5.169,0,7.83c0.962,0,1.829,0,2.881,0c0,4.61,0,9.148,0,13.687
			c0.087,0.005,0.174,0.01,0.26,0.014c0.056-0.111,0.154-0.223,0.161-0.336c0.119-1.959,0.264-3.916,0.323-5.876
			c0.052-1.686-0.001-3.374,0-5.061c0-0.208,0.043-0.416,0.078-0.694c1.072,0.74,2.817,0.724,3.604-0.087c0,3.545,0,6.954,0,10.403
			c0.461,0.035,0.8,0.062,1.215,0.095c0,0.6,0,1.19,0,1.781c0.08,0,0.158,0,0.236,0.001c0-2.176,0-4.351,0-6.572
			c1.74,0,3.327,0,5.069,0c0,1.964,0,5.295,0,7.264 M7.403,33.11c0.114,0.007,0.227,0.015,0.34,0.021c0-0.411,0-0.822,0-1.233
			c-0.076-0.004-0.151-0.007-0.226-0.011C7.479,32.296,7.441,32.704,7.403,33.11z"/>
	</g>
</g>
</svg>
